<?xml version="1.0" standalone="no"?>
<!DOCTYPE svg PUBLIC "-//W3C//DTD SVG 20010904//EN"
 "http://www.w3.org/TR/2001/REC-SVG-20010904/DTD/svg10.dtd">
<svg version="1.0" xmlns="http://www.w3.org/2000/svg"
 width="260.000000pt" height="260.000000pt" viewBox="0 0 260.000000 260.000000"
 preserveAspectRatio="xMidYMid meet">
<metadata>
Created by potrace 1.11, written by Peter Selinger 2001-2013
</metadata>
<g transform="translate(0.000000,260.000000) scale(0.100000,-0.100000)"
fill="#000000" stroke="none">
<path d="M1150 2400 c-261 -104 -479 -190 -484 -192 -5 -2 -9 -371 -9 -869 l0
-865 -124 -49 c-68 -27 -126 -52 -129 -56 -2 -4 18 -39 44 -77 l48 -70 380
150 c208 83 406 161 439 173 132 51 550 217 554 220 5 6 3 496 -2 501 -2 3
-42 -10 -87 -28 l-83 -33 1 -158 c0 -142 -2 -158 -18 -167 -28 -15 -829 -330
-839 -330 -5 0 -9 153 -9 350 l1 349 61 25 c34 14 205 82 381 151 176 69 341
135 367 146 58 24 55 24 56 -8 0 -16 0 -45 1 -65 l1 -37 63 26 c34 14 72 27
85 30 25 6 24 -1 23 207 0 65 -2 120 -3 121 -2 2 -52 -17 -113 -41 -60 -24
-110 -44 -112 -44 -2 0 -3 58 -3 129 l0 129 -88 -35 -88 -35 1 -124 c0 -69 -2
-128 -5 -132 -3 -4 -142 -62 -309 -127 -167 -66 -307 -121 -311 -123 -4 -1 -7
143 -8 320 l0 324 310 122 c170 67 313 120 317 118 4 -3 7 -30 6 -61 -1 -30 1
-55 5 -55 5 0 45 14 89 31 l81 31 0 159 c0 87 -3 159 -7 158 -5 0 -222 -85
-483 -189z"/>
<path d="M1935 2354 c-16 -7 -235 -93 -485 -191 l-455 -179 -3 -226 -2 -227
77 31 c43 17 83 35 88 39 7 5 10 58 10 133 0 124 0 125 25 136 43 20 553 222
582 230 26 8 27 7 26 -32 0 -22 4 -43 10 -47 12 -7 150 -6 158 2 7 6 9 336 3
341 -2 2 -17 -2 -34 -10z"/>
<path d="M2160 1610 c-8 -5 -55 -25 -105 -43 -49 -19 -268 -105 -486 -191
-217 -86 -398 -156 -400 -156 -3 0 -5 27 -4 60 0 33 -3 60 -9 60 -5 0 -45 -14
-88 -31 l-78 -32 0 -158 c0 -88 1 -159 3 -159 5 0 126 48 152 60 11 5 137 55
280 111 226 88 373 146 558 220 l47 19 0 -354 0 -354 -347 -138 c-192 -75
-478 -188 -638 -251 -159 -63 -296 -118 -303 -122 -9 -5 1 -26 34 -76 26 -39
48 -72 50 -74 1 -2 164 60 361 138 197 78 383 151 413 163 30 12 73 29 95 38
22 10 141 57 265 105 124 48 230 92 235 97 6 6 10 200 10 543 0 570 2 553 -45
525z"/>
</g>
</svg>
