<?xml version="1.0" encoding="utf-8"?>
<!-- Generator: Adobe Illustrator 18.1.1, SVG Export Plug-In . SVG Version: 6.00 Build 0)  -->
<svg version="1.1" id="Layer_1" xmlns="http://www.w3.org/2000/svg" xmlns:xlink="http://www.w3.org/1999/xlink" x="0px" y="0px"
	 viewBox="0 0 563.7 540.1" enable-background="new 0 0 563.7 540.1" xml:space="preserve">
<g>
	<g>
		<g>
			<path fill="#FFFFFF" d="M100.2,486v3.7c0,27.7-22.5,50.2-50.2,50.2c-27.7,0-50-22.5-50-50.2s22.3-50.2,50-50.2
				c13.8,0,26.2,5.6,35.3,14.6l-18.6,18.5c-4.3-4-9.9-6.7-16.7-6.7c-12.6,0-23.7,10-23.7,23.8c0,13.8,11.4,23.8,23.7,23.8
				c7.9,0,15.3-3.9,19.4-9.9H50V486H100.2z"/>
			<path fill="#FFFFFF" d="M151.2,439.6c27.7,0,50.2,22.6,50.2,50.3s-22.5,50-50.2,50c-27.7,0-50-22.3-50-50
				S123.5,439.6,151.2,439.6z M151.2,465.8c-13.1,0-23.8,10.7-23.8,23.9c0,13.1,10.7,23.9,23.8,23.9c13.2,0,23.9-10.8,23.9-23.9
				C175.1,476.5,164.4,465.8,151.2,465.8z"/>
			<path fill="#FFFFFF" d="M319.1,539.9l-15.5-26.6h-16.3v26.6h-26.4V439.6h42.3c20.3,0,36.9,16.6,36.9,36.9
				c0,10.7-4.7,20.3-11.9,27l21.3,36.4H319.1z M287.2,490.6h16.3c8,0,14.4-6.3,14.4-14.3s-6.4-14.4-14.4-14.4h-16.3V490.6z"/>
			<path fill="#FFFFFF" d="M352.8,439.6h26.4v100.3h-26.4V439.6z"/>
		</g>
		<g>
			<path fill="#FFFFFF" d="M501.3,439.6h62.3v21.8h-36v16.3h31.8V500h-31.8v18.5h36v21.5h-62.3V439.6z"/>
		</g>
		<g>
			<g>
				<path fill="#0090FC" d="M489.3,496.5"/>
				<g>
					<path fill="#0090FC" d="M474.9,514.7c-4.3,2.5-9.3,3.9-14.7,3.9c-7.7,0-14.8-3.2-20.1-8l-8.4-6.6h0
						c-12.1-10-28.5-11.3-41.5-5.1v1.3l0,0v32.8v7.1h50v0.1c16,0,30.8-7.9,39.9-20.1c5-6.7,8.2-14.7,9.3-23.5c0,0,0.2-1.9,0.3-4.1
						C488.6,501.9,482.9,510.1,474.9,514.7z M440,533h-42.7v-29.2c10-3.1,21.4-0.8,30.1,6.2h0l8.4,6.4c6.5,5.7,15.3,9.4,24.6,9.4
						c1.2,0,2.5-0.1,3.8-0.2C457.2,530.3,448.7,533,440,533z"/>
					<path fill="#0090FC" d="M390.3,489.7l7-6.1v0l21-17.8l20,22l0.1,0l0.2,0.2l18.4-18l26.2,14.9l0,0l6.6,3.7
						c-1-26.5-23.6-47.7-49.6-47.7v0.2h-50v6.8l0,0V489.7z M479.4,474.5l-23.5-13.4l-0.1,0.1l-0.1-0.1l-17,16.5L419,455.8l0,0
						l-0.1,0l-21.6,18.3V448H440C457.6,448,473,458.9,479.4,474.5z"/>
				</g>
			</g>
		</g>
	</g>
	<g>
		<g>
			<path fill="#FFFFFF" d="M226.9,0H243c12,0,21.8,9.8,21.8,21.8S255,43.6,243,43.6h-16.1V0z M238.2,32.2h4.8
				c5.7,0,10.3-4.6,10.3-10.3c0-5.6-4.6-10.3-10.3-10.3h-4.8V32.2z"/>
			<path fill="#FFFFFF" d="M293.8,43.6L287.1,32H280v11.6h-11.4V0h18.3c8.8,0,16,7.2,16,16c0,4.6-2,8.8-5.2,11.7l9.2,15.8H293.8z
				 M280,22.1h7.1c3.5,0,6.3-2.7,6.3-6.2c0-3.5-2.8-6.3-6.3-6.3H280V22.1z"/>
			<path fill="#FFFFFF" d="M308.5,0h27v9.5h-15.6v7.1h13.8v9.6h-13.8v8h15.6v9.3h-27V0z"/>
			<path fill="#FFFFFF" d="M336.7,43.6L357,0h5.2l20.5,43.5h-11.4l-2.7-5.7h-17.8l-2.6,5.7H336.7z M355.2,28.2h8.9l-4.4-9.6
				L355.2,28.2z"/>
			<path fill="#FFFFFF" d="M407.3,16.2L425,0h5.2v43.5h-11.5V21.2l-11.4,10.4l-11.4-10.3v22.3h-11.5V0h5.2L407.3,16.2z"/>
		</g>
		<g>
			<g>
				<path fill="#FFFFFF" d="M158.5,105.2c-1.6-1.6-3.8-2.5-6.3-2.5c-5.1,0-8.8,3.7-8.8,8.8c0,5.1,3.7,8.8,8.8,8.8
					c2.6,0,4.8-0.9,6.3-2.5l7,6.9c-3.4,3.4-8.1,5.6-13.3,5.6c-10.4,0-18.8-8.4-18.8-18.8s8.4-18.8,18.8-18.8c5.2,0,9.8,2.1,13.2,5.5
					L158.5,105.2z"/>
				<path fill="#FFFFFF" d="M186.7,92.8c10.4,0,18.8,8.5,18.8,18.8s-8.4,18.7-18.8,18.7c-10.4,0-18.7-8.4-18.7-18.7
					S176.3,92.8,186.7,92.8z M186.7,102.6c-4.9,0-8.9,4-8.9,9c0,4.9,4,9,8.9,9c5,0,9-4.1,9-9C195.7,106.6,191.7,102.6,186.7,102.6z"
					/>
				<path fill="#FFFFFF" d="M208.8,92.8h9.9v27.7h13.5v9.9h-23.4V92.8z"/>
				<path fill="#FFFFFF" d="M235.7,92.8h9.9v27.7h13.5v9.9h-23.4V92.8z"/>
				<path fill="#FFFFFF" d="M262.6,92.8H286v8.2h-13.5v6.1h11.9v8.3h-11.9v6.9H286v8.1h-23.4V92.8z"/>
				<path fill="#FFFFFF" d="M313.7,105.2c-1.6-1.6-3.8-2.5-6.3-2.5c-5.1,0-8.8,3.7-8.8,8.8c0,5.1,3.7,8.8,8.8,8.8
					c2.6,0,4.8-0.9,6.3-2.5l7,6.9c-3.4,3.4-8.1,5.6-13.3,5.6c-10.4,0-18.8-8.4-18.8-18.8s8.4-18.8,18.8-18.8c5.2,0,9.8,2.1,13.2,5.5
					L313.7,105.2z"/>
				<path fill="#FFFFFF" d="M323.4,92.7H353v9.8h-10v27.8h-9.9v-27.8h-9.8V92.7z"/>
				<path fill="#FFFFFF" d="M356.2,92.8h9.9v37.6h-9.9V92.8z"/>
				<path fill="#FFFFFF" d="M406.4,92.7l-17.5,37.6h-4.5l-17.5-37.6h9.9l9.9,21.4l9.9-21.4H406.4z"/>
				<path fill="#FFFFFF" d="M407.1,92.8h23.4v8.2H417v6.1h11.9v8.3H417v6.9h13.5v8.1h-23.4V92.8z"/>
			</g>
		</g>
		<g>
			<path fill="#0090FC" d="M226.7,89V46.1h19c6.9,0,12.7,5.9,12.7,12.8c0,2.9-1.1,5.6-2.7,7.7c2.9,2.3,4.9,6,4.9,9.8
				c0,6.8-5.8,12.6-12.6,12.6H226.7z M243.4,62.9c2.1,0,3.7-1.7,3.7-3.7s-1.7-3.7-3.7-3.7H238v7.4H243.4z M245.5,79.7
				c2.1,0,3.7-1.7,3.7-3.7s-1.8-3.7-3.7-3.7H238v7.4H245.5z"/>
			<path fill="#0090FC" d="M283.7,46.1c11.9,0,21.5,9.7,21.5,21.5c0,11.9-9.6,21.4-21.5,21.4c-11.9,0-21.4-9.6-21.4-21.4
				C262.3,55.8,271.9,46.1,283.7,46.1z M283.7,57.3c-5.6,0-10.2,4.6-10.2,10.3c0,5.6,4.6,10.2,10.2,10.2c5.7,0,10.3-4.6,10.3-10.2
				C294,61.9,289.4,57.3,283.7,57.3z"/>
			<path fill="#0090FC" d="M306.1,89l20-42.9h5.1L351.4,89h-11.3l-2.6-5.6H320l-2.6,5.6H306.1z M324.4,73.9h8.8l-4.4-9.4L324.4,73.9
				z"/>
			<path fill="#0090FC" d="M378,89l-6.6-11.4h-7V89h-11.3V46.1h18.1c8.7,0,15.8,7.1,15.8,15.8c0,4.6-2,8.7-5.1,11.6L391,89H378z
				 M364.4,67.9h7c3.4,0,6.2-2.7,6.2-6.1s-2.7-6.2-6.2-6.2h-7V67.9z"/>
			<path fill="#0090FC" d="M392.5,46.1h15.9c11.9,0,21.5,9.6,21.5,21.5c0,11.9-9.6,21.5-21.5,21.5h-15.9V46.1z M403.7,77.8h4.8
				c5.6,0,10.2-4.6,10.2-10.2c0-5.6-4.6-10.1-10.2-10.1h-4.8V77.8z"/>
		</g>
		<g>
			<path fill="#FFFFFF" d="M177.9,12h-32.6v19.7l16.5-14.1l0,0l0.2,0l0.3,0v0l-0.3,0l-0.1,0L177,34.3l13.1-12.7l0.1,0.1l0-0.1
				l18.1,10.6C203.4,20.2,191.4,12,177.9,12z"/>
			<path fill="#FFFFFF" d="M174.5,64.1l-6.5-5.1h0.1c-6.6-5-14.9-6.8-22.9-4.5V77h32.6c6.7,0,13.3-2.1,18.5-5.7
				c-0.9,0.1-1.9,0.1-2.9,0.1C186.3,71.5,179.5,68.5,174.5,64.1z"/>
			<path fill="#FFFFFF" d="M133.3,0v89h89V0H133.3z M215.9,48.9c-0.8,6.7-3.2,12.9-7,18.1c-7,9.4-18.6,15.5-30.6,15.5V82h-39v-5
				V51.7v-1c10-4.8,23-2.8,32.2,4.2h0l6.5,5c4.1,3.7,9.6,6,15.5,6c4.1,0,8-1.1,11.3-3c6.2-3.5,10.5-9.8,11.4-17.2
				C216.1,47.5,215.9,48.9,215.9,48.9z M211.2,39.9L211.2,39.9L191,28.4l-14.2,13.9l-0.1-0.1l0,0l-15.4-17l-16,13.7v0l-6,4.7V11.4V6
				h39V5.9c20,0,37.4,16.3,38.1,36.8L211.2,39.9z"/>
		</g>
	</g>
	<g>
		<path fill="#0090FC" d="M185.3,332.3h-22.8c-3.1,0-5.6-2.5-5.6-5.6l0,0c0-3.1,2.5-5.6,5.6-5.6h22.8c3.1,0,5.6,2.5,5.6,5.6l0,0
			C190.9,329.8,188.4,332.3,185.3,332.3z"/>
		<path fill="#0090FC" d="M426,245.4h-22.8c-3.1,0-5.6-2.5-5.6-5.6v-6.5c0-3.1,2.5-5.6,5.6-5.6H426c3.1,0,5.6,2.5,5.6,5.6v6.5
			C431.6,242.9,429,245.4,426,245.4z"/>
		<path fill="#0090FC" d="M426,332.3h-22.8c-3.1,0-5.6-2.5-5.6-5.6v-7c0-3.1,2.5-5.6,5.6-5.6H426c3.1,0,5.6,2.5,5.6,5.6v7
			C431.6,329.8,429,332.3,426,332.3z"/>
		<path fill="#0090FC" d="M185.3,238.9h-22.8c-3.1,0-5.6-2.5-5.6-5.6v0c0-3.1,2.5-5.6,5.6-5.6h22.8c3.1,0,5.6,2.5,5.6,5.6v0
			C190.9,236.4,188.4,238.9,185.3,238.9z"/>
		<path fill="#4F4F4F" d="M102.1,311.9L102.1,311.9c2.3,2.3,5.3,3.9,8.5,4.5c153.1,31.3,296.8,7.8,333,0.8c5.4-1,10-4.7,12.2-9.8
			l9.3-21.4c1.9-4.3,1.9-9.1,0-13.4l-9.3-21.5c-2.2-5.1-6.8-8.7-12.2-9.8c-36.2-7-179.9-30.5-333,0.8c-3.2,0.7-6.2,2.2-8.5,4.5l0,0
			c-5.2,5.1-6.4,13-3.1,19.5l2.8,5.4c2.4,4.8,2.4,10.5,0,15.3l-2.8,5.4C95.7,298.9,96.9,306.8,102.1,311.9z"/>
		<g>
			<circle fill="#FFFFFF" cx="428.6" cy="287.8" r="1.2"/>
			<circle fill="#FFFFFF" cx="428.6" cy="270.8" r="1.2"/>
			<circle fill="#FFFFFF" cx="402.6" cy="287.8" r="1.2"/>
			<circle fill="#FFFFFF" cx="402.6" cy="270.8" r="1.2"/>
		</g>
		<g>
			<circle fill="#FFFFFF" cx="183.7" cy="287.8" r="1.2"/>
			<circle fill="#FFFFFF" cx="183.7" cy="270.8" r="1.2"/>
			<circle fill="#FFFFFF" cx="157.6" cy="287.8" r="1.2"/>
			<circle fill="#FFFFFF" cx="157.6" cy="270.8" r="1.2"/>
		</g>
		<g>
			<polygon fill="#FFFFFF" points="234.5,241.7 239,237.6 239.8,238.5 235.3,242.6 			"/>
			
				<rect x="234.6" y="236.1" transform="matrix(0.6489 0.7609 -0.7609 0.6489 263.4895 -97.5995)" fill="#FFFFFF" width="5.7" height="1.2"/>
			<polygon fill="#FFFFFF" points="235.4,240.9 238.9,244.6 238.1,245.4 234.5,241.7 			"/>
			<polygon fill="#FFFFFF" points="238.9,244.6 236,249.7 235,249.1 237.9,244 			"/>
			<rect x="225.9" y="233.8" fill="#FFFFFF" width="1.2" height="8.2"/>
			<rect x="227.1" y="233.8" fill="#FFFFFF" width="5.4" height="1.2"/>
			<path fill="#FFFFFF" d="M232.4,234.5"/>
			<rect x="241.1" y="233.8" fill="#FFFFFF" width="1.2" height="8.2"/>
			<path fill="#FFFFFF" d="M233,250.1"/>
			<path fill="#FFFFFF" d="M235.1,248.9l-0.7,1.3c4.4-0.2,7.9-4.2,7.9-8.2h-1.2C241.1,246,238.5,248.4,235.1,248.9z"/>
			<path fill="#FFFFFF" d="M230,247.7c-0.4-0.7-0.6-1.5-0.6-2.4c0-1.3,0.5-2.5,1.3-3.3l-0.9-0.7c-0.9,1.1-1.6,2.5-1.6,4.1
				c0,0.2,0,0.4,0,0.6c-0.8-1.1-1.2-2.9-1.2-3.9h-1.2c0,2,1.3,5.1,3.3,6.6c1.1,0.8,2.4,1.4,3.9,1.5c0,0,0.3,0,0.7,0
				C232.2,250,230.8,249.1,230,247.7z"/>
			<polygon fill="#FFFFFF" points="235.2,235 241.3,235 241.3,234 234.2,234 			"/>
			<polygon fill="#FFFFFF" points="230.7,242 231.8,240.6 230.9,239.9 229.8,241.3 			"/>
			<path fill="#FFFFFF" d="M232.7,234h-1.3c1.1,1,1,4.2-0.4,6l0.9,0.8C233.4,238.8,233.7,236,232.7,234z"/>
		</g>
	</g>
</g>
</svg>
