<?xml version="1.0" encoding="utf-8"?>
<!-- Generator: Adobe Illustrator 18.1.1, SVG Export Plug-In . SVG Version: 6.00 Build 0)  -->
<svg version="1.1" id="Layer_1" xmlns="http://www.w3.org/2000/svg" xmlns:xlink="http://www.w3.org/1999/xlink" x="0px" y="0px"
	 viewBox="0 0 572.4 588.9" enable-background="new 0 0 572.4 588.9" xml:space="preserve">
<g>
	<g>
		
			<text transform="matrix(1 0 0 1 -1.220703e-04 567.7297)" fill="#FFFFFF" font-family="'BigJohn'" font-size="133.7764" letter-spacing="-9">GO RI</text>
		
			<text transform="matrix(1 0 0 1 499.8499 567.7292)" fill="#FFFFFF" font-family="'BigJohn'" font-size="133.7764" letter-spacing="-9">E</text>
		<g>
			<g>
				<path fill="#0090FC" d="M498,524.3"/>
				<g>
					<path fill="#0090FC" d="M483.6,542.5c-4.3,2.5-9.3,3.9-14.7,3.9c-7.7,0-14.8-3.3-20.1-8.1l-8.4-6.8h0.2
						c-12.1-9-27.9-11-40.9-4.8v1.3l0,0v32.8v6.7h50v0.4c16,0,30.4-7.9,39.4-20.1c5-6.7,8-14.7,9.1-23.5c0,0,0.1-1.9,0.2-4.1
						C497.4,529.7,491.6,537.9,483.6,542.5z M448.7,560.4h-41.9v-28.9c10-3.1,20.6-1.1,29.2,5.9h0l8.4,6.6
						c6.5,5.7,15.3,9.5,24.6,9.5c1.2,0,2.5-0.2,3.8-0.3C465.9,557.9,457.4,560.4,448.7,560.4z"/>
					<path fill="#0090FC" d="M399.8,517.5l7-6.1v0l20.6-17.8l19.8,22l0,0l0.1,0.2l18.4-18l26.2,14.9l0,0l7.1,3.7
						c-1-26.5-23.2-47.7-49.2-47.7v-0.1h-50v7.2l0,0V517.5z M488.2,502.1l-23.5-13.3l-0.1,0.1l-0.1-0.1l-17,16.5l-19.7-21.7l0,0
						l0.3,0l-21.2,18.3v-26.5h41.9C466.3,475.4,481.8,486.5,488.2,502.1z"/>
				</g>
			</g>
		</g>
	</g>
	<g>
		
			<text transform="matrix(1 0 0 1 228.1646 49.3408)" fill="#FFFFFF" font-family="'BigJohn'" font-size="58.049" letter-spacing="-4">dREAM</text>
		<g>
			
				<text transform="matrix(1 0 0 1 136.1831 136.166)" fill="#FFFFFF" font-family="'BigJohn'" font-size="50.1243" letter-spacing="-3">COLLECTIVE</text>
		</g>
		
			<text transform="matrix(1 0 0 1 228.0337 94.8036)" fill="#0090FC" font-family="'BigJohn'" font-size="57.2605" letter-spacing="-4">Board</text>
		<g>
			<path fill="#FFFFFF" d="M183.5,17.4h-32.7v20l16.5-14.1l0,0l0.2,0l0.3,0v0l-0.2,0l-0.1,0l15.2,16.8l13.1-12.7l0.1,0.1l0-0.1
				l18.1,10.4C209,25.8,197.1,17.4,183.5,17.4z"/>
			<path fill="#FFFFFF" d="M180.2,69.7l-6.5-5.3h0.1c-6.6-5-15-6.5-23-4.1v22.1h32.7c6.7,0,13.3-1.9,18.5-5.5
				c-0.9,0.1-1.9,0.1-2.9,0.1C191.9,77.1,185.2,74.1,180.2,69.7z"/>
			<path fill="#FFFFFF" d="M138.8,5.4v89h89v-89H138.8z M221.6,54.7c-0.8,6.7-3.2,12.9-7.1,18.1c-7,9.4-18.7,15.5-30.7,15.5v-0.9
				h-39v-4.7V57.5v-1c10-4.8,23-3.1,32.3,3.9h0l6.5,5.1c4.1,3.7,9.6,6.1,15.5,6.1c4.1,0,8-1.1,11.3-3c6.2-3.5,10.5-9.8,11.4-17.2
				C221.7,53.3,221.6,54.7,221.6,54.7z M216.9,45.7L216.9,45.7l-20.2-11.5l-14.2,13.9l-0.1-0.1l0,0l-15.4-17l-16.1,13.7v0l-6,4.7
				V17.2v-5.7h39v0.3c20,0,37.4,16.3,38.2,36.8L216.9,45.7z"/>
		</g>
	</g>
	<g>
		<path fill="#0090FC" d="M189.6,349.7h-22.8c-3.1,0-5.6-2.5-5.6-5.6l0,0c0-3.1,2.5-5.6,5.6-5.6h22.8c3.1,0,5.6,2.5,5.6,5.6l0,0
			C195.2,347.2,192.7,349.7,189.6,349.7z"/>
		<path fill="#0090FC" d="M430.3,262.8h-22.8c-3.1,0-5.6-2.5-5.6-5.6v-6.5c0-3.1,2.5-5.6,5.6-5.6h22.8c3.1,0,5.6,2.5,5.6,5.6v6.5
			C435.9,260.3,433.4,262.8,430.3,262.8z"/>
		<path fill="#0090FC" d="M430.3,349.7h-22.8c-3.1,0-5.6-2.5-5.6-5.6v-7c0-3.1,2.5-5.6,5.6-5.6h22.8c3.1,0,5.6,2.5,5.6,5.6v7
			C435.9,347.2,433.4,349.7,430.3,349.7z"/>
		<path fill="#0090FC" d="M189.6,256.3h-22.8c-3.1,0-5.6-2.5-5.6-5.6v0c0-3.1,2.5-5.6,5.6-5.6h22.8c3.1,0,5.6,2.5,5.6,5.6v0
			C195.2,253.8,192.7,256.3,189.6,256.3z"/>
		<path fill="#4F4F4F" d="M106.5,329.3L106.5,329.3c2.3,2.3,5.3,3.9,8.5,4.5c153.1,31.3,296.8,7.8,333,0.8c5.4-1,10-4.7,12.2-9.8
			l9.3-21.4c1.9-4.3,1.9-9.1,0-13.4l-9.3-21.5c-2.2-5.1-6.8-8.7-12.2-9.8c-36.2-7-179.9-30.5-333,0.8c-3.2,0.7-6.2,2.2-8.5,4.5l0,0
			c-5.2,5.1-6.4,13-3.1,19.5l2.8,5.4c2.4,4.8,2.4,10.5,0,15.3l-2.8,5.4C100,316.3,101.3,324.2,106.5,329.3z"/>
		<g>
			<circle fill="#FFFFFF" cx="433" cy="305.2" r="1.2"/>
			<circle fill="#FFFFFF" cx="433" cy="288.2" r="1.2"/>
			<circle fill="#FFFFFF" cx="406.9" cy="305.2" r="1.2"/>
			<circle fill="#FFFFFF" cx="406.9" cy="288.2" r="1.2"/>
		</g>
		<g>
			<circle fill="#FFFFFF" cx="188.1" cy="305.2" r="1.2"/>
			<circle fill="#FFFFFF" cx="188.1" cy="288.2" r="1.2"/>
			<circle fill="#FFFFFF" cx="162" cy="305.2" r="1.2"/>
			<circle fill="#FFFFFF" cx="162" cy="288.2" r="1.2"/>
		</g>
		<g>
			<polygon fill="#FFFFFF" points="238.9,259.1 243.4,255 244.2,255.9 239.7,260 			"/>
			
				<rect x="239" y="253.5" transform="matrix(0.6489 0.7609 -0.7609 0.6489 278.2556 -94.7984)" fill="#FFFFFF" width="5.7" height="1.2"/>
			<polygon fill="#FFFFFF" points="239.7,258.3 243.3,262 242.4,262.8 238.8,259.1 			"/>
			<polygon fill="#FFFFFF" points="243.3,262 240.4,267.1 239.4,266.5 242.3,261.4 			"/>
			<rect x="230.2" y="251.2" fill="#FFFFFF" width="1.2" height="8.2"/>
			<rect x="231.4" y="251.2" fill="#FFFFFF" width="5.4" height="1.2"/>
			<path fill="#FFFFFF" d="M236.8,251.9"/>
			<rect x="245.5" y="251.2" fill="#FFFFFF" width="1.2" height="8.2"/>
			<path fill="#FFFFFF" d="M237.4,267.5"/>
			<path fill="#FFFFFF" d="M239.5,266.4l-0.7,1.3c4.4-0.2,7.9-4.2,7.9-8.2h-1.2C245.5,263.4,242.9,265.9,239.5,266.4z"/>
			<path fill="#FFFFFF" d="M234.4,265.1c-0.4-0.7-0.6-1.5-0.6-2.4c0-1.3,0.5-2.5,1.3-3.3l-0.9-0.7c-0.9,1.1-1.6,2.5-1.6,4.1
				c0,0.2,0,0.4,0,0.6c-0.8-1.1-1.2-2.9-1.2-3.9h-1.2c0,2,1.3,5.1,3.3,6.6c1.1,0.8,2.4,1.4,3.9,1.5c0,0,0.3,0,0.7,0
				C236.5,267.4,235.2,266.5,234.4,265.1z"/>
			<polygon fill="#FFFFFF" points="239.6,252.4 245.8,252.4 245.8,251.4 238.5,251.4 			"/>
			<polygon fill="#FFFFFF" points="235.1,259.4 236.2,258 235.3,257.3 234.2,258.7 			"/>
			<path fill="#FFFFFF" d="M237,251.4h-1.3c1.1,1,1,4.2-0.4,6l0.9,0.8C237.8,256.2,238.1,253.4,237,251.4z"/>
		</g>
	</g>
</g>
</svg>
