<?xml version="1.0" encoding="utf-8"?>
<!-- Generator: Adobe Illustrator 18.1.1, SVG Export Plug-In . SVG Version: 6.00 Build 0)  -->
<svg version="1.1" id="Layer_1" xmlns="http://www.w3.org/2000/svg" xmlns:xlink="http://www.w3.org/1999/xlink" x="0px" y="0px"
	 viewBox="0 0 238.3 36.5" enable-background="new 0 0 238.3 36.5" xml:space="preserve">
<g>
	<g enable-background="new    ">
		<g>
			<path fill="#FFFFFF" d="M30.7,18.7c-4.6,1.6-9.7,2.4-15.4,2.4c-4.7,0-9.1-0.6-13.1-1.7v10H0V8.2c4.6-1.6,9.7-2.4,15.4-2.4
				c5.6,0,10.8,0.8,15.4,2.4V18.7z M28.5,17.2V9.7c-4-1.2-8.4-1.8-13.2-1.8c-4.8,0-9.1,0.6-13.1,1.8v7.5c4,1.2,8.4,1.7,13.1,1.7
				C20.2,19,24.6,18.4,28.5,17.2z"/>
			<path fill="#FFFFFF" d="M65.4,29.3H62L51.8,21H50c-4.7,0-9.1-0.6-13.1-1.7v10h-2.2V7.9c4.6-1.6,9.7-2.4,15.4-2.4
				c5.6,0,10.8,0.8,15.4,2.4v10.8c-3.2,1.1-6.6,1.8-10.4,2.2L65.4,29.3z M63.2,17.2V9.3c-4-1.2-8.4-1.8-13.2-1.8
				c-4.8,0-9.1,0.6-13.1,1.8v7.8c4,1.2,8.4,1.7,13.1,1.7C54.8,18.9,59.2,18.3,63.2,17.2z"/>
			<path fill="#FFFFFF" d="M134.3,26.9c-4.6,1.6-9.7,2.4-15.4,2.4c-5.6,0-10.8-0.8-15.4-2.4v-2.2c4.5,1.6,9.6,2.5,15.4,2.5
				c4.8,0,9.2-0.6,13.2-1.8v-6.8h-28.5V8.2c4.6-1.6,9.7-2.4,15.4-2.4c5.6,0,10.8,0.8,15.4,2.4v2.2c-4.5-1.6-9.6-2.5-15.4-2.5
				c-4.8,0-9.1,0.6-13.1,1.8v6.8h28.5V26.9z"/>
			<path fill="#FFFFFF" d="M169,16.2c-4.3,1.5-9,2.3-14.3,2.4v10.7h-2.2V18.6c-5.2-0.1-10-0.9-14.3-2.4V5.8h2.2v9
				c4,1.2,8.4,1.7,13.1,1.7c4.8,0,9.2-0.6,13.2-1.7v-9h2.2V16.2z"/>
			<path fill="#FFFFFF" d="M203.6,29.4h-2.2V9.7c-4-1.2-8.4-1.8-13.2-1.8c-4.8,0-9.1,0.6-13.1,1.8v19.7h-2.2V8.2
				c4.6-1.6,9.7-2.4,15.4-2.4c5.6,0,10.8,0.8,15.4,2.4V29.4z"/>
			<path fill="#FFFFFF" d="M238.3,26.9c-4.6,1.6-9.7,2.4-15.4,2.4c-5.6,0-10.8-0.8-15.4-2.4V8.2c4.6-1.6,9.7-2.4,15.4-2.4
				c5.6,0,10.8,0.8,15.4,2.4v2.2c-4.5-1.6-9.6-2.5-15.4-2.5c-4.8,0-9.1,0.6-13.1,1.8v15.8c4,1.2,8.4,1.8,13.1,1.8
				c5.8,0,10.9-0.8,15.4-2.5V26.9z"/>
		</g>
	</g>
	<g>
		<path fill="#FFFFFF" d="M93.2,15.4c-0.1-0.3,0.1,6.3-6.2,11.5c-4.3,3.5-8.7,3.3-11.9,0.4c3.2,0.7,6.9-0.5,10.3-3.3
			c5.5-4.5,6.3-11.3,5.9-12.2c-0.1-0.3,0.2,6.3-6.2,11.5c-4.9,3.9-9.9,3.2-13.1-0.9c-1.8-5.1-0.4-11.1,4.5-15c5.4-4.3,9.6-3,9.5-3.2
			c-0.5-1-5.7-0.7-9.8,2.6c-3.4,2.8-5.8,6.5-6.6,10.3c-1-4.7,0.6-9.9,4.9-13.4c5.4-4.3,9.6-3,9.5-3.2c-0.5-1-5.7-0.8-9.8,2.6
			c-6,4.8-8.8,12.7-5.2,19.2c0.3,0.6,0.7,1.2,1.1,1.7c0.2,0.6,0.5,1.3,0.8,1.9c3.5,6.5,10.5,6.5,16.5,1.6
			C92.9,23.1,93.7,16.2,93.2,15.4z"/>
		<path fill="#FFFFFF" d="M100.3,14.4c-0.3-0.6-0.7-1.2-1.1-1.7c-0.2-0.6-0.5-1.3-0.8-1.9c-3.5-6.6-10.5-6.5-16.5-1.7
			c-4.1,3.3-6.3,9-5.8,10c0.1,0.2,0.8-5.1,6.1-9.4c4.3-3.5,8.8-3.3,12-0.3C91,8.8,87.3,10,83.9,12.8c-4.1,3.3-6.3,9-5.8,10
			c0.1,0.2,0.8-5,6.2-9.4c4.9-3.9,9.9-3.2,13,0.9c1.8,5.2,0.4,11.1-4.4,15.1c-6.4,5.1-11.2,2.2-11.1,2.5c0.4,0.8,5.9,2.7,11.4-1.8
			c3.4-2.7,5.8-6.4,6.5-10.3c0.9,4.7-0.7,9.7-5,13.2c-6.4,5.2-11.2,2.2-11.1,2.5c0.4,0.8,5.9,2.6,11.4-1.8
			C101.1,28.7,103.9,20.9,100.3,14.4z"/>
	</g>
</g>
</svg>
